<?xml version="1.0" encoding="UTF-8"?>
<svg width="572px" height="623px" viewBox="0 0 572 623" version="1.1" xmlns="http://www.w3.org/2000/svg" xmlns:xlink="http://www.w3.org/1999/xlink">
    <!-- Generator: Sketch 50.2 (55047) - http://www.bohemiancoding.com/sketch -->
    <title>Combined Shape</title>
    <desc>Created with Sketch.</desc>
    <defs></defs>
    <g id="Page-1" stroke="none" stroke-width="1" fill="none" fill-rule="evenodd">
        <g id="iPhone-8-Copy-2" transform="translate(-241.000000, -107.000000)" fill="#FFFFFF">
            <path d="M402.207031,107 L775.240234,107 C799.289062,107 805.617187,120.492187 810.693359,132.447266 C814.077474,140.417318 812.191406,163.870443 805.035156,202.806641 C801.230469,179.212891 793.457682,167.416016 781.716797,167.416016 C764.105469,167.416016 748.588867,189.75 748.588867,200.212891 L748.588867,633.640625 C748.588867,661.585938 740.742416,679.968286 722.058594,699.097656 C703.428358,718.172161 680.693359,729.530273 649.806641,729.530273 L273.349121,729.530273 C258.615723,729.530273 241,704.719727 241,694.165039 C241,683.634277 241.888672,672.729492 245.474609,651.945312 C251.228516,671.698242 252.677734,688.86377 273.349121,689.733887 C290.063314,689.733887 297.946289,677.137695 296.998047,651.945313 L296.998047,217.734375 C296.998047,188.916016 305.871772,159.118055 329.277344,135.548828 C348.39264,116.299876 366.919922,107 402.207031,107 Z M518.505859,321.234375 C556.613507,321.234375 587.505859,290.342023 587.505859,252.234375 C587.505859,214.126727 556.613507,183.234375 518.505859,183.234375 C480.398212,183.234375 449.505859,214.126727 449.505859,252.234375 C449.505859,290.342023 480.398212,321.234375 518.505859,321.234375 Z M375.611328,399.310547 C375.611328,417.587891 381.197266,426.726562 392.369141,426.726562 C409.126953,426.726562 417.271484,406.419922 434.613281,406.419922 C451.955078,406.419922 459.091797,438.626953 482.957031,438.626953 C506.822266,438.626953 544.441406,406.419922 568.675781,406.419922 C592.910156,406.419922 598.544922,426.726562 614.816406,426.726562 C625.664062,426.726562 636.098307,421.697266 646.119141,411.638672 C667.551432,417.14388 679.777344,417.14388 682.796875,411.638672 C685.816406,406.133464 685.816406,397.473958 682.796875,385.660156 C674.423177,376.141927 663.867187,371.382812 651.128906,371.382812 C632.021484,371.382812 616.103516,385.660156 600.554688,385.660156 C585.005859,385.660156 570.710938,371.382812 548.675781,371.382812 C526.640625,371.382812 503.724609,399.310547 482.957031,399.310547 C462.189453,399.310547 463.947266,366.927734 434.613281,366.927734 C415.057292,366.927734 395.389974,377.722005 375.611328,399.310547 Z M379.121094,504.425781 C375.03776,509.542318 372.996094,515.416667 372.996094,522.048828 C372.996094,531.99707 372.273437,543.560547 379.121094,543.560547 L530.353516,543.560547 C556.363281,543.560547 564.689453,518.550781 587.490234,518.550781 C610.291016,518.550781 611.878906,540.591797 629.099609,540.591797 C646.320312,540.591797 653.982422,537.298828 666.902344,530.785156 C679.822266,524.271484 686.087891,512.100586 682.902344,504.425781 C679.716797,496.750977 676.320312,491.234375 644.792969,491.234375 C613.265625,491.234375 609.414062,478.042969 587.490234,478.042969 C565.566406,478.042969 546.236328,504.425781 530.353516,504.425781 C514.470703,504.425781 472.998047,490.78125 457.285156,490.78125 C446.809896,490.78125 420.755208,495.329427 379.121094,504.425781 Z M377.638672,610.210937 C373.500651,619.273437 371.431641,626.797526 371.431641,632.783203 C371.431641,641.761719 377.638672,650.087891 401.794922,650.087891 C425.951172,650.087891 427.03125,662.980469 448.054688,662.980469 C469.078125,662.980469 497.703125,635.630859 526.65625,635.630859 C555.609375,635.630859 554.068359,652.597656 581.880859,652.597656 C609.693359,652.597656 623.980469,638.169922 651.560547,638.169922 C679.140625,638.169922 682.876953,626.867187 682.876953,621.103516 C682.876953,615.339844 679.308594,601.919922 669.318359,597.449219 C659.328125,592.978516 652.160156,594.943359 632.603516,594.943359 C613.046875,594.943359 594.703125,617.443359 581.880859,617.443359 C569.058594,617.443359 565.816406,594.943359 556.720703,594.943359 C547.625,594.943359 520.654297,594.943359 503.060547,594.943359 C485.466797,594.943359 457.003906,617.443359 442.0625,617.443359 C427.121094,617.443359 420.234375,594.943359 406.837891,594.943359 C397.906901,594.943359 388.173828,600.032552 377.638672,610.210937 Z" id="Combined-Shape"></path>
        </g>
    </g>
</svg>